<?xml version="1.0" encoding="UTF-8"?>
<svg width="45px" height="44px" viewBox="0 0 45 44" version="1.1" xmlns="http://www.w3.org/2000/svg" xmlns:xlink="http://www.w3.org/1999/xlink">
    <!-- Generator: Sketch 51.3 (57544) - http://www.bohemiancoding.com/sketch -->
    <title>2</title>
    <desc>Created with Sketch.</desc>
    <defs></defs>
    <g id="Web-Version" stroke="none" stroke-width="1" fill="none" fill-rule="evenodd">
        <g id="PC_Responsive" transform="translate(-685.000000, -460.000000)" fill="#FFFFFF" fill-rule="nonzero">
            <g id="Enlarged" transform="translate(664.269626, 430.000000)">
                <g id="2" transform="translate(21.000000, 30.000000)">
                    <path d="M22,0 C9.83268183,0 0,9.83268183 0,22 C0,34.1673182 9.83268183,44 22,44 C34.1673182,44 44,34.1673182 44,22 C44,9.83268183 34.1673182,0 22,0 Z M22,3.66666667 C32.2050777,3.66666667 40.3333333,11.7949223 40.3333333,22 C40.3333333,32.2050777 32.2050777,40.3333333 22,40.3333333 C11.7949223,40.3333333 3.66666667,32.2050777 3.66666667,22 C3.66666667,11.7949223 11.7949223,3.66666667 22,3.66666667 Z M12.0885417,14.6666667 C11.171875,14.6666667 10.4628902,15.0319015 9.91145833,15.5833333 C9.3600265,16.1347652 9.16666667,16.6861988 9.16666667,17.4166667 C9.16666667,18.1471363 9.5319015,18.8632822 10.0833333,19.59375 C10.4485682,20.3242197 11.171875,21.0833333 12.0885417,22 C12.8190113,22.7304697 13.75,23.4466155 14.6666667,24.1770833 C15.7695322,23.4466155 16.5143238,22.7233068 17.2447917,22.171875 C18.1614583,21.4414072 18.6985682,20.5533863 19.25,19.8229167 C19.8014318,18.90625 20.1666667,17.9752613 20.1666667,17.2447917 C20.1666667,16.6933598 19.8014318,16.1347652 19.25,15.5833333 C18.6985682,15.0319015 17.9752613,14.6666667 17.2447917,14.6666667 C15.9628902,14.6666667 15.2180985,15.5833333 14.6666667,16.5 C14.1152348,15.5833333 13.3704432,14.6666667 12.0885417,14.6666667 Z M26.7552083,14.6666667 C25.8385417,14.6666667 25.1295568,15.0319015 24.578125,15.5833333 C24.0266932,16.1347652 23.8333333,16.6861988 23.8333333,17.4166667 C23.8333333,18.1471363 24.1985682,18.90625 24.75,19.8229167 C25.1152348,20.5533863 25.8385417,21.2552083 26.7552083,22.171875 C27.485678,22.9023447 28.4166667,23.6757822 29.3333333,24.40625 C30.4361988,23.4895833 31.1809905,22.7233068 31.9114583,22.171875 C32.828125,21.4414072 33.3652348,20.5533863 33.9166667,19.8229167 C34.4680985,18.90625 34.8333333,17.9752613 34.8333333,17.2447917 C34.8333333,16.6933598 34.4680985,16.1347652 33.9166667,15.5833333 C33.3652348,15.0319015 32.641928,14.6666667 31.9114583,14.6666667 C30.6295568,14.6666667 29.8847652,15.5833333 29.3333333,16.5 C28.7819015,15.5833333 28.0371098,14.6666667 26.7552083,14.6666667 Z M14.3229167,27.2135417 L11.34375,29.2760417 C13.6855473,32.6848958 17.5670568,34.8333333 22,34.8333333 C26.4329432,34.8333333 30.3144527,32.6848958 32.65625,29.2760417 L29.6770833,27.2135417 C27.9869792,29.6699223 25.265625,31.1666667 22,31.1666667 C18.734375,31.1666667 16.0130208,29.6699223 14.3229167,27.2135417 Z" id="Shape"></path>
                </g>
            </g>
        </g>
    </g>
</svg>