<?xml version="1.0" encoding="UTF-8"?>
<svg width="40px" height="28px" viewBox="0 0 40 28" version="1.1" xmlns="http://www.w3.org/2000/svg" xmlns:xlink="http://www.w3.org/1999/xlink">
    <!-- Generator: Sketch 51.3 (57544) - http://www.bohemiancoding.com/sketch -->
    <title>misemise</title>
    <desc>Created with Sketch.</desc>
    <defs></defs>
    <g id="Web-Version" stroke="none" stroke-width="1" fill="none" fill-rule="evenodd">
        <g id="PC_Responsive" transform="translate(-52.000000, -44.000000)" fill="#FFFFFF">
            <g id="misemise" transform="translate(52.000000, 44.000000)">
                <path d="M40,19.2 C40,23.58 36.48,27.12 32.14,27.12 L7.86,27.12 C3.52,27.12 0,23.58 0,19.2 C0,15.26 2.86,12 6.62,11.4 C6.56,11.12 6.54,10.84 6.54,10.54 C6.54,7.78 8.76,5.52 11.52,5.52 C12.74,5.52 13.88,5.98 14.74,6.72 C16.28,3.22 18.26,0 23.82,0 C30.56,0 33.74,5.24 33.74,10.78 C33.74,11 33.74,11.24 33.72,11.46 C37.3,12.2 40,15.38 40,19.2 Z" id="Path"></path>
            </g>
        </g>
    </g>
</svg>