<?xml version="1.0" encoding="UTF-8"?>
<svg width="24px" height="24px" viewBox="0 0 24 24" version="1.1" xmlns="http://www.w3.org/2000/svg" xmlns:xlink="http://www.w3.org/1999/xlink">
    <!-- Generator: Sketch 51.3 (57544) - http://www.bohemiancoding.com/sketch -->
    <title>Group 2</title>
    <desc>Created with Sketch.</desc>
    <defs></defs>
    <g id="Web-Version" stroke="none" stroke-width="1" fill="none" fill-rule="evenodd">
        <g id="PC_Responsive" transform="translate(-1387.000000, -38.000000)" fill="#1EBEA5" fill-rule="nonzero">
            <g id="My-location" transform="translate(1381.000000, 32.000000)">
                <g id="Group-2" transform="translate(6.000000, 6.000000)">
                    <path d="M12,7.75 C9.65,7.75 7.75,9.65 7.75,12 C7.75,14.35 9.65,16.25 12,16.25 C14.35,16.25 16.25,14.35 16.25,12 C16.25,9.65 14.35,7.75 12,7.75 Z M12,13.75 C11.05,13.75 10.25,12.95 10.25,12 C10.25,11.05 11.05,10.25 12,10.25 C12.95,10.25 13.75,11.05 13.75,12 C13.75,12.95 12.95,13.75 12,13.75 Z M22.75,10.75 L21.15,10.75 C20.6,6.65 17.35,3.4 13.25,2.85 L13.25,1.25 C13.25,0.55 12.7,0 12,0 C11.3,0 10.75,0.55 10.75,1.25 L10.75,2.85 C6.65,3.4 3.4,6.65 2.85,10.75 L1.25,10.75 C0.55,10.75 0,11.3 0,12 C0,12.7 0.55,13.25 1.25,13.25 L2.85,13.25 C3.4,17.35 6.65,20.6 10.75,21.15 L10.75,22.75 C10.75,23.45 11.3,24 12,24 C12.7,24 13.25,23.45 13.25,22.75 L13.25,21.15 C17.35,20.6 20.6,17.35 21.15,13.25 L22.75,13.25 C23.45,13.25 24,12.7 24,12 C24,11.3 23.45,10.75 22.75,10.75 Z M12,18.75 C8.3,18.75 5.25,15.7 5.25,12 C5.25,8.3 8.3,5.25 12,5.25 C15.7,5.25 18.75,8.3 18.75,12 C18.75,15.7 15.7,18.75 12,18.75 Z" id="Shape"></path>
                </g>
            </g>
        </g>
    </g>
</svg>