<?xml version="1.0" encoding="UTF-8"?>
<svg width="24px" height="28px" viewBox="0 0 24 28" version="1.1" xmlns="http://www.w3.org/2000/svg" xmlns:xlink="http://www.w3.org/1999/xlink">
    <!-- Generator: Sketch 51.3 (57544) - http://www.bohemiancoding.com/sketch -->
    <title>ic_search</title>
    <desc>Created with Sketch.</desc>
    <defs></defs>
    <g id="Web-Version" stroke="none" stroke-width="1" fill="none" fill-rule="evenodd">
        <g id="PC_Responsive" transform="translate(-411.000000, -44.000000)" fill="#1EBEA5" fill-rule="nonzero">
            <g id="ic_search" transform="translate(411.000000, 44.000000)">
                <path id="Oval" d="M11.1111111,23.4217965 C17.2540317,23.4217965 22.2222222,18.3734739 22.2222222,12.1601478 C22.2222222,5.94682164 17.2540317,0.898499028 11.1111111,0.898499028 C4.9681905,0.898499028 4.4408921e-16,5.94682164 4.4408921e-16,12.1601478 C4.4408921e-16,18.3734739 4.9681905,23.4217965 11.1111111,23.4217965 Z M11.1111111,19.866241 C6.94471639,19.866241 3.55555556,16.4224162 3.55555556,12.1601478 C3.55555556,7.8978793 6.94471639,4.45405458 11.1111111,4.45405458 C15.2775058,4.45405458 18.6666667,7.8978793 18.6666667,12.1601478 C18.6666667,16.4224162 15.2775058,19.866241 11.1111111,19.866241 Z"></path>
                <path id="Rectangle" d="M17.0343504,19.8569742 L20.6145891,19.8285794 L18.8227679,18.0367898 L18.7446823,27.9043949 L20.5083053,26.1407407 L16.9280666,26.1691355 L18.7198877,27.9609251 L18.7979734,18.09332 L17.0343504,19.8569742 Z M17.0061522,16.3015304 L15.2563757,16.3154079 L15.2425292,18.0651846 L15.1644435,27.9327897 L15.1501511,29.7389035 L16.9562647,29.7245792 L20.5365035,29.6961845 L22.2862799,29.682307 L22.3001265,27.9325303 L22.3782122,18.0649252 L22.3925045,16.2588114 L20.586391,16.2731357 L17.0061522,16.3015304 Z"></path>
            </g>
        </g>
    </g>
</svg>